<svg width="15" height="14" viewBox="0 0 15 14" fill="none" xmlns="http://www.w3.org/2000/svg">
<path d="M10.3675 7.66659C10.8675 7.66659 11.3075 7.39325 11.5341 6.97992L13.9208 2.65325C14.1675 2.21325 13.8475 1.66659 13.3408 1.66659H3.47415L2.84748 0.333252H0.66748V1.66659H2.00081L4.40081 6.72659L3.50081 8.35325C3.01415 9.24659 3.65415 10.3333 4.66748 10.3333H12.6675V8.99992H4.66748L5.40081 7.66659H10.3675ZM4.10748 2.99992H12.2075L10.3675 6.33325H5.68748L4.10748 2.99992ZM4.66748 10.9999C3.93415 10.9999 3.34081 11.5999 3.34081 12.3333C3.34081 13.0666 3.93415 13.6666 4.66748 13.6666C5.40081 13.6666 6.00081 13.0666 6.00081 12.3333C6.00081 11.5999 5.40081 10.9999 4.66748 10.9999ZM11.3341 10.9999C10.6008 10.9999 10.0075 11.5999 10.0075 12.3333C10.0075 13.0666 10.6008 13.6666 11.3341 13.6666C12.0675 13.6666 12.6675 13.0666 12.6675 12.3333C12.6675 11.5999 12.0675 10.9999 11.3341 10.9999Z" fill="#424242"/>
</svg>
