<svg width="55" height="63" viewBox="0 0 55 63" fill="none" xmlns="http://www.w3.org/2000/svg">
    <g clip-path="url(#clip0_169_1043)">
        <path d="M27.5376 27.9886L27.2148 62.5186L54.5374 46.0042V33.1359V12.9756L27.5376 27.9886ZM49.5892 41.6076L32.5933 51.6877V45.4681L49.5892 36.4602V41.6076ZM49.5892 30.0261L32.5933 39.3556V33.3504L49.5892 23.8064V30.0261Z" fill="black" />
        <path d="M0 13.19L5.59358 16.0854L29.0436 4.71838L33.6691 6.8631L10.7569 18.8735L27.5376 27.9886L54.5374 12.9755L48.5136 10.0802L27.3225 21.4472L21.8365 18.4446L43.4578 7.61375L27.5376 0L0 13.19Z" fill="#E8AA00" />
        <path d="M27.6453 27.9886L0.645508 13.9407V33.1359V46.0042L27.968 62.5185L27.6453 27.9886ZM22.5896 51.6877L5.59368 41.6075V36.4602L22.5896 45.468V51.6877ZM22.5896 39.3556L5.59368 30.0261V23.8064L22.5896 33.3504V39.3556Z" fill="#999999" />
    </g>
    <defs>
        <clipPath id="clip0_169_1043">
            <rect width="54.5374" height="62.5185" fill="white" />
        </clipPath>
    </defs>
</svg>
    